<svg width="40" height="40" viewBox="0 0 40 40" fill="none" xmlns="http://www.w3.org/2000/svg">
  <path d="M11 18.5 A10 7.5 0 0 1 29 18.5 Z" fill="#fb923c"/>
  <path d="M20 21 L4 17 L4 31 C7.5 36.5 13.5 39 20 39 Z" fill="#fb923c"/>
  <path d="M20 21 L36 17 L36 31 C32.5 36.5 26.5 39 20 39 Z" fill="#16a34a"/>
  <path d="M4 17 L4 31 C7.5 37 13.5 39.5 20 39.5 C26.5 39.5 32.5 37 36 31 L36 17" stroke="#1e3a8a" stroke-width="2.5" stroke-linecap="round" stroke-linejoin="round"/>
  <line x1="20" y1="21" x2="20" y2="39.5" stroke="#1e3a8a" stroke-width="1.5" stroke-linecap="round"/>
  <path d="M14 8 L14 13 C14 15.2 16.8 16.5 20 16.5 C23.2 16.5 26 15.2 26 13 L26 8" fill="#1e3a8a"/>
  <path d="M20 2 L33 8 L20 14 L7 8 Z" fill="#1e3a8a"/>
  <path d="M33 8 C34 11 35.5 14.5 34.5 17.5" stroke="#1e3a8a" stroke-width="2" stroke-linecap="round"/>
  <circle cx="34.5" cy="19" r="1.8" fill="#1e3a8a"/>
  <path d="M20 21 C18 24 15.5 27 18 30 C20.5 33 22.5 36 20 38.5" stroke="white" stroke-width="2.2" stroke-linecap="round"/>
  <path d="M20 7 C20.4 8.6 21.5 9.6 23.2 10.2 C21.5 10.8 20.4 11.8 20 13.4 C19.6 11.8 18.5 10.8 16.8 10.2 C18.5 9.6 19.6 8.6 20 7 Z" fill="white"/>
</svg>
